# xmcd
#
# Track frame offsets: 
#        150
#        20876
#        39359
#        66491
#        98508
#        127931
#        156150
#        173595
#        197229
#        217059
#        231923
#        251177
#        275376
#        293932
#        324111
#
# Disc length: 4740 seconds
#
# Revision: 0
# Processed by: cddbd v1.5.2PL0 Copyright (c) Steve Scherf et al.
# Submitted via: ExactAudioCopy v0.99pb4
#
DISCID=db12820f
DTITLE=Lightning Guy and the mighty gators - Live from the heart
DYEAR=2009
DGENRE=Blues
TTITLE0=Highway King
TTITLE1=Going down
TTITLE2=Cut you loose
TTITLE3=Ain't no sunshine
TTITLE4=Congo Square
TTITLE5=automatic
TTITLE6=Gator Bop
TTITLE7=Out of the rain
TTITLE8=Junko Partner
TTITLE9=gone Pecan
TTITLE10=Nine Below Zero
TTITLE11=Linda lu
TTITLE12=Hip Shake
TTITLE13=Do that boogie
TTITLE14=Bon ton roulet
EXTD=
EXTT0=
EXTT1=
EXTT2=
EXTT3=
EXTT4=
EXTT5=
EXTT6=
EXTT7=
EXTT8=
EXTT9=
EXTT10=
EXTT11=
EXTT12=
EXTT13=
EXTT14=
PLAYORDER=
